<?xml version="1.0" encoding="UTF-8" standalone="no"?>
<!-- Created with Inkscape (http://www.inkscape.org/) -->

<svg
   xmlns:dc="http://purl.org/dc/elements/1.1/"
   xmlns:cc="http://creativecommons.org/ns#"
   xmlns:rdf="http://www.w3.org/1999/02/22-rdf-syntax-ns#"
   xmlns:svg="http://www.w3.org/2000/svg"
   xmlns="http://www.w3.org/2000/svg"
   xmlns:sodipodi="http://sodipodi.sourceforge.net/DTD/sodipodi-0.dtd"
   xmlns:inkscape="http://www.inkscape.org/namespaces/inkscape"
   version="1.1"
   id="svg2"
   xml:space="preserve"
   width="1000"
   height="666.66669"
   viewBox="0 0 1000 666.66669"
   sodipodi:docname="3605321.svg"
   inkscape:version="0.92.4 (f8dce91, 2019-08-02)"><metadata
     id="metadata8"><rdf:RDF><cc:Work
         rdf:about=""><dc:format>image/svg+xml</dc:format><dc:type
           rdf:resource="http://purl.org/dc/dcmitype/StillImage" /><dc:title></dc:title></cc:Work></rdf:RDF></metadata><defs
     id="defs6"><clipPath
       clipPathUnits="userSpaceOnUse"
       id="clipPath20"><path
         d="M 0,500 H 750 V 0 H 0 Z"
         id="path18"
         inkscape:connector-curvature="0" /></clipPath><clipPath
       clipPathUnits="userSpaceOnUse"
       id="clipPath28"><path
         d="M 0,170.581 H 750 V 82.8158 H 0 Z"
         id="path26"
         inkscape:connector-curvature="0" /></clipPath><clipPath
       clipPathUnits="userSpaceOnUse"
       id="clipPath44"><path
         d="M 373.214,480.664 H 715.352 V 133.819 H 373.214 Z"
         id="path42"
         inkscape:connector-curvature="0" /></clipPath><clipPath
       clipPathUnits="userSpaceOnUse"
       id="clipPath48"><path
         d="m 432.301,395.451 h 77.387 v -34.979 h -77.387 z"
         id="path46"
         inkscape:connector-curvature="0" /></clipPath><clipPath
       clipPathUnits="userSpaceOnUse"
       id="clipPath52"><path
         d="m 373.214,186.672 h 116.93 v -52.853 h -116.93 z"
         id="path50"
         inkscape:connector-curvature="0" /></clipPath><clipPath
       clipPathUnits="userSpaceOnUse"
       id="clipPath56"><path
         d="m 627.431,355.365 h 87.921 v -39.742 h -87.921 z"
         id="path54"
         inkscape:connector-curvature="0" /></clipPath><clipPath
       clipPathUnits="userSpaceOnUse"
       id="clipPath60"><path
         d="M 475.766,480.664 H 604.698 V 422.386 H 475.766 Z"
         id="path58"
         inkscape:connector-curvature="0" /></clipPath><clipPath
       clipPathUnits="userSpaceOnUse"
       id="clipPath64"><path
         d="m 431.679,255.703 h 70.95 v -32.07 h -70.95 z"
         id="path62"
         inkscape:connector-curvature="0" /></clipPath><clipPath
       clipPathUnits="userSpaceOnUse"
       id="clipPath136"><path
         d="M 0,82.8158 H 750 V 0 H 0 Z"
         id="path134"
         inkscape:connector-curvature="0" /></clipPath><clipPath
       clipPathUnits="userSpaceOnUse"
       id="clipPath150"><path
         d="M 0,82.8158 H 750 V 0 H 0 Z"
         id="path148"
         inkscape:connector-curvature="0" /></clipPath><clipPath
       clipPathUnits="userSpaceOnUse"
       id="clipPath194"><path
         d="M 0,500 H 750 V 0 H 0 Z"
         id="path192"
         inkscape:connector-curvature="0" /></clipPath><clipPath
       clipPathUnits="userSpaceOnUse"
       id="clipPath234"><path
         d="M 98.0881,409.779 H 226.742 V 253.02 H 98.0881 Z"
         id="path232"
         inkscape:connector-curvature="0" /></clipPath><clipPath
       clipPathUnits="userSpaceOnUse"
       id="clipPath302"><path
         d="M 478.154,56.8017 H 631.209 V 35.3679 H 478.154 Z"
         id="path300"
         inkscape:connector-curvature="0" /></clipPath></defs><sodipodi:namedview
     pagecolor="#ffffff"
     bordercolor="#666666"
     borderopacity="1"
     objecttolerance="10"
     gridtolerance="10"
     guidetolerance="10"
     inkscape:pageopacity="0"
     inkscape:pageshadow="2"
     inkscape:window-width="1366"
     inkscape:window-height="714"
     id="namedview4"
     showgrid="false"
     inkscape:zoom="0.30009657"
     inkscape:cx="500"
     inkscape:cy="98.019012"
     inkscape:window-x="0"
     inkscape:window-y="28"
     inkscape:window-maximized="1"
     inkscape:current-layer="g10" /><g
     id="g10"
     inkscape:groupmode="layer"
     inkscape:label="3605321"
     transform="matrix(1.3333333,0,0,-1.3333333,0,666.66667)"><path
       d="M 0,0 H 750 V 500 H 0 Z"
       style="fill:#567ccf;fill-opacity:1;fill-rule:nonzero;stroke:none"
       id="path12"
       inkscape:connector-curvature="0" /><g
       id="g14"><g
         id="g16"
         clip-path="url(#clipPath20)"><g
           id="g22"><g
             id="g24" /><g
             id="g36"><g
               clip-path="url(#clipPath28)"
               id="g34"
               style="opacity:0.5"><g
                 transform="translate(0,154.4336)"
                 id="g32"><path
                   d="m 0,0 c 0,0 195.899,51.166 290.184,-28.664 0,0 136.73,73.756 237.77,-3.489 0,0 183.208,84.645 222.046,-39.465 H 0 Z"
                   style="fill:#36384f;fill-opacity:1;fill-rule:nonzero;stroke:none"
                   id="path30"
                   inkscape:connector-curvature="0" /></g></g></g></g><g
           id="g38"><g
             id="g40" /><g
             id="g128"><g
               clip-path="url(#clipPath44)"
               id="g126"
               style="opacity:0.60000598"><g
                 id="g76"><g
                   id="g66" /><g
                   id="g74"><g
                     clip-path="url(#clipPath48)"
                     id="g72"
                     style="opacity:0.30000299"><g
                       transform="translate(442.3877,360.4717)"
                       id="g70"><path
                         d="M 0,0 H 11.117 C 11.202,0.07 11.28,0.14 11.365,0.21 11.475,0.14 11.583,0.07 11.691,0 H 57.213 C 62.658,0 67.25,4.319 67.3,9.764 v 0.119 c 0,7.133 -5.78,12.913 -12.913,12.913 -0.102,0 -0.195,-0.015 -0.295,-0.015 -1.182,5.345 -5.945,9.347 -11.648,9.347 -2.742,0 -5.252,-0.932 -7.264,-2.479 -3.419,3.303 -8.065,5.33 -13.194,5.33 -8.119,0 -15.049,-5.097 -17.769,-12.26 -0.458,0.047 -0.916,0.077 -1.391,0.077 -7.132,0 -12.913,-5.78 -12.913,-12.913 0,-0.04 0,-0.079 10e-4,-0.119 C -10.037,4.319 -5.445,0 0,0"
                         style="fill:#c7d9ff;fill-opacity:1;fill-rule:nonzero;stroke:none"
                         id="path68"
                         inkscape:connector-curvature="0" /></g></g></g></g><g
                 id="g88"><g
                   id="g78" /><g
                   id="g86"><g
                     clip-path="url(#clipPath52)"
                     id="g84"
                     style="opacity:0.30000299"><g
                       transform="translate(470.6328,168.2637)"
                       id="g82"><path
                         d="M 0,0 C -0.153,0 -0.294,-0.023 -0.446,-0.023 -2.231,8.054 -9.428,14.1 -18.045,14.1 c -4.143,0 -7.935,-1.409 -10.976,-3.746 -5.167,4.99 -12.187,8.054 -19.935,8.054 -12.269,0 -22.74,-7.701 -26.85,-18.525 -0.692,0.07 -1.384,0.117 -2.101,0.117 -10.777,0 -19.511,-8.734 -19.511,-19.512 0,-0.059 0,-0.12 0,-0.179 0.074,-8.229 7.013,-14.754 15.241,-14.754 h 16.797 c 0.129,0.106 0.246,0.212 0.375,0.317 0.165,-0.105 0.329,-0.211 0.493,-0.317 H 4.271 c 8.228,0 15.166,6.525 15.24,14.754 0,0.059 0.001,0.12 0.001,0.179 C 19.512,-8.734 10.777,0 0,0"
                         style="fill:#c7d9ff;fill-opacity:1;fill-rule:nonzero;stroke:none"
                         id="path80"
                         inkscape:connector-curvature="0" /></g></g></g></g><g
                 id="g100"><g
                   id="g90" /><g
                   id="g98"><g
                     clip-path="url(#clipPath56)"
                     id="g96"
                     style="opacity:0.30000299"><g
                       transform="translate(700.6807,341.5229)"
                       id="g94"><path
                         d="m 0,0 c -0.115,0 -0.221,-0.018 -0.336,-0.018 -1.342,6.074 -6.753,10.62 -13.231,10.62 -3.117,0 -5.968,-1.06 -8.254,-2.816 -3.884,3.752 -9.163,6.056 -14.99,6.056 -9.224,0 -17.098,-5.791 -20.188,-13.93 C -57.52,-0.035 -58.04,0 -58.579,0 -66.683,0 -73.25,-6.567 -73.25,-14.671 c 0,-0.045 0,-0.09 0.001,-0.135 0.056,-6.187 5.272,-11.093 11.459,-11.093 h 12.63 c 0.097,0.079 0.185,0.158 0.282,0.238 0.124,-0.08 0.248,-0.159 0.371,-0.238 H 3.211 c 6.187,0 11.404,4.906 11.46,11.093 v 0.135 C 14.671,-6.567 8.104,0 0,0"
                         style="fill:#c7d9ff;fill-opacity:1;fill-rule:nonzero;stroke:none"
                         id="path92"
                         inkscape:connector-curvature="0" /></g></g></g></g><g
                 id="g112"><g
                   id="g102" /><g
                   id="g110"><g
                     clip-path="url(#clipPath60)"
                     id="g108"
                     style="opacity:0.30000299"><g
                       transform="translate(583.1836,460.3667)"
                       id="g106"><path
                         d="m 0,0 c -0.168,0 -0.323,-0.026 -0.492,-0.026 -1.968,8.906 -9.903,15.573 -19.404,15.573 -4.57,0 -8.751,-1.554 -12.104,-4.13 -5.696,5.502 -13.437,8.88 -21.98,8.88 -13.528,0 -25.075,-8.491 -29.606,-20.427 -0.764,0.078 -1.527,0.13 -2.317,0.13 -11.883,0 -21.515,-9.631 -21.515,-21.515 0,-0.066 0.001,-0.132 0.001,-0.198 0.082,-9.073 7.732,-16.268 16.805,-16.268 h 18.521 c 0.143,0.117 0.272,0.233 0.414,0.35 0.182,-0.117 0.363,-0.233 0.544,-0.35 H 4.709 c 9.073,0 16.723,7.195 16.805,16.268 0.001,0.066 0.001,0.132 0.001,0.198 C 21.515,-9.631 11.884,0 0,0"
                         style="fill:#c7d9ff;fill-opacity:1;fill-rule:nonzero;stroke:none"
                         id="path104"
                         inkscape:connector-curvature="0" /></g></g></g></g><g
                 id="g124"><g
                   id="g114" /><g
                   id="g122"><g
                     clip-path="url(#clipPath64)"
                     id="g120"
                     style="opacity:0.30000299"><g
                       transform="translate(490.79,244.5337)"
                       id="g118"><path
                         d="m 0,0 c -0.093,0 -0.179,-0.015 -0.271,-0.015 -1.083,4.901 -5.45,8.57 -10.678,8.57 -2.515,0 -4.816,-0.855 -6.66,-2.272 -3.135,3.027 -7.395,4.886 -12.096,4.886 -7.444,0 -13.798,-4.673 -16.291,-11.24 C -46.417,-0.029 -46.837,0 -47.271,0 -53.811,0 -59.11,-5.3 -59.11,-11.839 v -0.11 c 0.045,-4.992 4.255,-8.952 9.248,-8.952 h 10.191 c 0.078,0.065 0.15,0.129 0.228,0.193 0.1,-0.064 0.2,-0.128 0.299,-0.193 H 2.591 c 4.992,0 9.202,3.96 9.247,8.952 0.001,0.036 0.001,0.074 0.001,0.11 C 11.839,-5.3 6.539,0 0,0"
                         style="fill:#c7d9ff;fill-opacity:1;fill-rule:nonzero;stroke:none"
                         id="path116"
                         inkscape:connector-curvature="0" /></g></g></g></g></g></g></g><g
           id="g130"><g
             id="g132" /><g
             id="g142"><g
               clip-path="url(#clipPath136)"
               id="g140"><path
                 d="M 750,0 H 0 v 82.815 h 750 z"
                 style="fill:#36384f;fill-opacity:1;fill-rule:nonzero;stroke:none"
                 id="path138"
                 inkscape:connector-curvature="0" /></g></g></g><g
           id="g144"><g
             id="g146" /><g
             id="g158"><g
               clip-path="url(#clipPath150)"
               id="g156"
               style="opacity:0.19999701"><g
                 transform="translate(750,17.5205)"
                 id="g154"><path
                   d="m 0,0 c -156.936,-6.673 -446.072,-6.673 -414.495,27.514 10.552,11.424 -7.467,27.557 -21.967,37.781 H -750 V -17.521 H 0 Z"
                   style="fill:#36384f;fill-opacity:1;fill-rule:nonzero;stroke:none"
                   id="path152"
                   inkscape:connector-curvature="0" /></g></g></g></g><g
           id="g160"
           transform="translate(428.4082,401.4199)"><path
             d="m 0,0 c -0.812,0.147 -1.675,-0.742 -2.117,-2.076 l -3.032,1.01 c 0.552,1.532 0.856,3.184 0.856,4.907 0,2.385 -0.581,4.632 -1.603,6.615 l 2.3,1.703 c 1.02,-0.888 2.203,-1.188 2.744,-0.646 0.586,0.586 0.196,1.927 -0.873,2.996 -1.068,1.069 -2.41,1.459 -2.996,0.873 -0.481,-0.481 -0.296,-1.471 0.374,-2.401 l -2.097,-1.553 c -1.43,2.314 -3.494,4.194 -5.949,5.398 l 0.177,1.791 c 0.949,-0.015 1.71,0.326 1.812,0.882 0.123,0.679 -0.781,1.412 -2.018,1.637 -1.238,0.225 -2.342,-0.143 -2.465,-0.823 -0.108,-0.595 0.572,-1.23 1.574,-1.531 l -0.147,-1.488 c -1.639,0.645 -3.422,1.004 -5.29,1.004 -0.706,0 -1.396,-0.063 -2.076,-0.161 0.005,0.004 0.013,0.011 0.013,0.011 -0.089,-0.012 -0.177,-0.03 -0.267,-0.045 -0.107,-0.017 -0.213,-0.034 -0.318,-0.054 -0.331,-0.061 -0.657,-0.132 -0.978,-0.216 -0.078,-0.02 -0.155,-0.042 -0.233,-0.063 -0.348,-0.096 -0.692,-0.2 -1.028,-0.321 l -0.484,1.438 c 1.073,0.361 1.792,1.046 1.686,1.712 -0.032,0.205 -0.138,0.388 -0.303,0.544 -0.494,0.467 -1.514,0.689 -2.633,0.512 -0.188,-0.029 -0.367,-0.068 -0.54,-0.116 -0.864,-0.237 -1.536,-0.685 -1.808,-1.183 -0.108,-0.199 -0.153,-0.406 -0.121,-0.61 0.045,-0.286 0.235,-0.528 0.526,-0.713 0.388,-0.246 0.957,-0.39 1.603,-0.396 0.162,-0.002 0.328,0.005 0.498,0.021 l 0.548,-1.627 c -2.716,-1.219 -4.987,-3.251 -6.503,-5.788 l -1.877,1.119 c 0.006,0.031 0.014,0.06 0.019,0.09 0.124,0.679 0.125,1.33 0.026,1.889 -0.066,0.372 -0.177,0.703 -0.325,0.973 -0.074,0.135 -0.158,0.255 -0.251,0.358 -0.185,0.205 -0.404,0.34 -0.653,0.385 -0.062,0.011 -0.125,0.016 -0.187,0.016 -0.938,-0.003 -1.899,-1.27 -2.207,-2.967 -0.145,-0.792 -0.122,-1.546 0.031,-2.16 0.111,-0.437 0.287,-0.803 0.518,-1.06 0.185,-0.204 0.405,-0.339 0.654,-0.385 0.095,-0.017 0.191,-0.02 0.285,-0.011 0.192,0.019 0.383,0.089 0.569,0.203 0.185,0.114 0.364,0.273 0.533,0.468 0.252,0.294 0.478,0.671 0.66,1.107 l 1.674,-0.998 c -0.963,-1.937 -1.508,-4.119 -1.508,-6.429 0,-0.957 0.094,-1.892 0.271,-2.797 0.297,-1.508 0.829,-2.932 1.553,-4.232 l -1.3,-0.367 c -0.609,1.309 -1.66,2.108 -2.397,1.791 -0.38,-0.164 -0.605,-0.594 -0.658,-1.156 -0.054,-0.562 0.062,-1.257 0.361,-1.951 0.074,-0.173 0.157,-0.339 0.246,-0.494 0.621,-1.09 1.548,-1.713 2.215,-1.426 0.59,0.254 0.798,1.149 0.585,2.185 l 1.548,0.435 c 1.962,-2.941 4.974,-5.122 8.501,-6.008 l -0.109,-1.526 c -1.646,0.226 -3.068,-0.289 -3.235,-1.203 -0.152,-0.842 0.808,-1.741 2.224,-2.167 0.202,-0.06 0.414,-0.112 0.632,-0.151 0.33,-0.06 0.651,-0.09 0.958,-0.093 0.308,-0.004 0.601,0.02 0.871,0.068 0.541,0.096 0.991,0.288 1.289,0.557 0.098,0.09 0.181,0.188 0.244,0.293 0.062,0.106 0.106,0.219 0.128,0.339 0.018,0.101 0.02,0.201 0.009,0.302 -0.049,0.403 -0.333,0.804 -0.779,1.148 -0.335,0.257 -0.762,0.481 -1.25,0.649 l 0.112,1.556 c 0.396,-0.067 0.797,-0.119 1.205,-0.155 0.406,-0.035 0.817,-0.054 1.233,-0.054 0.396,0 0.786,0.016 1.174,0.048 1.935,0.155 3.763,0.693 5.407,1.537 0.658,0.338 1.287,0.724 1.882,1.155 l 0.484,-1.133 c -1.098,-0.839 -1.636,-1.97 -1.199,-2.613 0.116,-0.172 0.291,-0.292 0.506,-0.362 0.108,-0.036 0.226,-0.059 0.352,-0.07 0.126,-0.01 0.261,-0.009 0.402,0.005 0.561,0.053 1.221,0.299 1.846,0.724 0.157,0.106 0.303,0.219 0.439,0.336 0.544,0.467 0.92,1.002 1.065,1.488 0.037,0.121 0.058,0.239 0.065,0.353 0.014,0.226 -0.034,0.432 -0.151,0.604 -0.046,0.068 -0.103,0.129 -0.168,0.181 -0.452,0.366 -1.308,0.326 -2.198,-0.072 l -0.542,1.267 c 0.262,0.222 0.512,0.458 0.757,0.698 0.042,0.041 0.084,0.084 0.125,0.126 0.237,0.239 0.468,0.484 0.689,0.739 v 0.001 c 0.907,1.049 1.669,2.229 2.247,3.51 l 3.204,-1.067 c -0.208,-1.625 0.305,-3.02 1.212,-3.185 0.961,-0.175 1.999,1.105 2.317,2.857 C 1.483,-1.737 0.962,-0.175 0,0"
             style="fill:#4873cf;fill-opacity:1;fill-rule:nonzero;stroke:none"
             id="path162"
             inkscape:connector-curvature="0" /></g><g
           id="g164"
           transform="translate(669.0508,414.4829)"><path
             d="m 0,0 c -0.562,0.102 -1.16,-0.514 -1.467,-1.438 l -2.101,0.699 c 0.383,1.062 0.593,2.207 0.593,3.401 0,1.651 -0.402,3.209 -1.111,4.583 l 1.595,1.18 c 0.706,-0.615 1.526,-0.823 1.901,-0.448 0.406,0.406 0.135,1.336 -0.605,2.076 -0.741,0.741 -1.67,1.011 -2.076,0.605 -0.333,-0.333 -0.206,-1.019 0.259,-1.663 L -4.465,7.918 c -0.991,1.604 -2.421,2.906 -4.122,3.741 l 0.122,1.241 c 0.658,-0.011 1.186,0.225 1.256,0.611 0.085,0.47 -0.541,0.978 -1.398,1.134 -0.858,0.156 -1.622,-0.099 -1.708,-0.57 -0.075,-0.412 0.396,-0.853 1.09,-1.06 l -0.101,-1.032 c -1.136,0.447 -2.371,0.696 -3.666,0.696 -0.489,0 -0.968,-0.044 -1.438,-0.112 0.003,0.003 0.008,0.008 0.008,0.008 -0.061,-0.009 -0.122,-0.021 -0.184,-0.031 -0.074,-0.012 -0.148,-0.024 -0.221,-0.038 -0.229,-0.042 -0.454,-0.091 -0.678,-0.149 -0.054,-0.014 -0.107,-0.029 -0.161,-0.044 -0.24,-0.067 -0.479,-0.139 -0.712,-0.223 l -0.335,0.997 c 0.743,0.25 1.241,0.725 1.168,1.186 -0.022,0.142 -0.097,0.269 -0.211,0.377 -0.342,0.324 -1.049,0.477 -1.824,0.355 -0.129,-0.02 -0.254,-0.047 -0.374,-0.08 -0.599,-0.165 -1.064,-0.475 -1.252,-0.82 -0.075,-0.138 -0.106,-0.281 -0.084,-0.423 0.031,-0.198 0.162,-0.366 0.364,-0.494 0.269,-0.17 0.662,-0.27 1.111,-0.275 0.112,-10e-4 0.227,0.004 0.345,0.015 l 0.379,-1.127 c -1.882,-0.845 -3.456,-2.253 -4.506,-4.011 l -1.3,0.776 c 0.004,0.021 0.009,0.041 0.013,0.062 0.085,0.471 0.086,0.922 0.018,1.309 -0.046,0.258 -0.122,0.487 -0.225,0.674 -0.052,0.094 -0.109,0.177 -0.174,0.248 -0.128,0.142 -0.28,0.235 -0.453,0.267 -0.043,0.008 -0.086,0.011 -0.129,0.011 -0.649,-0.002 -1.316,-0.88 -1.53,-2.056 -0.1,-0.548 -0.084,-1.071 0.023,-1.496 0.076,-0.304 0.198,-0.557 0.359,-0.735 0.128,-0.142 0.28,-0.235 0.452,-0.267 0.065,-0.011 0.132,-0.014 0.198,-0.007 0.133,0.013 0.265,0.061 0.394,0.14 0.128,0.079 0.253,0.189 0.369,0.325 0.175,0.203 0.332,0.464 0.458,0.767 l 1.16,-0.692 c -0.668,-1.342 -1.045,-2.854 -1.045,-4.454 0,-0.663 0.065,-1.311 0.188,-1.938 0.206,-1.045 0.574,-2.032 1.076,-2.933 l -0.901,-0.254 c -0.422,0.907 -1.15,1.46 -1.661,1.24 -0.263,-0.113 -0.419,-0.411 -0.456,-0.8 -0.037,-0.39 0.043,-0.871 0.25,-1.352 0.052,-0.12 0.109,-0.235 0.17,-0.343 0.431,-0.755 1.073,-1.186 1.535,-0.987 0.41,0.176 0.553,0.796 0.406,1.513 l 1.072,0.302 c 1.36,-2.038 3.447,-3.549 5.891,-4.163 l -0.076,-1.057 c -1.14,0.156 -2.126,-0.201 -2.241,-0.834 -0.106,-0.583 0.56,-1.206 1.54,-1.501 0.141,-0.042 0.287,-0.077 0.44,-0.105 0.227,-0.042 0.45,-0.062 0.663,-0.065 0.213,-0.002 0.416,0.014 0.603,0.048 0.374,0.066 0.687,0.199 0.893,0.385 0.068,0.062 0.126,0.131 0.169,0.203 0.044,0.074 0.074,0.152 0.089,0.236 0.012,0.069 0.014,0.139 0.005,0.209 -0.033,0.279 -0.229,0.557 -0.539,0.795 -0.232,0.178 -0.527,0.334 -0.866,0.45 l 0.077,1.078 c 0.275,-0.046 0.554,-0.083 0.835,-0.107 0.282,-0.025 0.567,-0.037 0.855,-0.037 0.274,0 0.545,0.01 0.813,0.032 1.341,0.108 2.608,0.481 3.747,1.066 0.456,0.234 0.892,0.501 1.304,0.799 l 0.336,-0.784 c -0.762,-0.582 -1.135,-1.365 -0.831,-1.811 0.08,-0.119 0.201,-0.202 0.351,-0.251 0.074,-0.025 0.156,-0.041 0.244,-0.048 0.087,-0.007 0.18,-0.006 0.277,0.003 0.39,0.037 0.848,0.207 1.28,0.502 0.109,0.074 0.21,0.152 0.304,0.232 0.377,0.324 0.637,0.695 0.738,1.032 0.026,0.083 0.04,0.166 0.045,0.244 0.009,0.157 -0.023,0.3 -0.104,0.419 -0.033,0.047 -0.072,0.089 -0.116,0.126 -0.314,0.253 -0.908,0.226 -1.524,-0.05 l -0.376,0.877 c 0.182,0.155 0.356,0.317 0.525,0.484 0.03,0.029 0.058,0.058 0.086,0.087 0.165,0.166 0.325,0.336 0.478,0.512 v 10e-4 c 0.628,0.727 1.156,1.544 1.557,2.432 l 2.22,-0.739 c -0.144,-1.126 0.212,-2.093 0.839,-2.207 0.666,-0.121 1.386,0.765 1.607,1.98 C 1.028,-1.204 0.667,-0.121 0,0"
             style="fill:#4873cf;fill-opacity:1;fill-rule:nonzero;stroke:none"
             id="path166"
             inkscape:connector-curvature="0" /></g><g
           id="g168"
           transform="translate(713.6943,253.5513)"><path
             d="m 0,0 c -1.068,0.194 -2.206,-0.978 -2.789,-2.734 l -3.994,1.329 c 0.728,2.019 1.128,4.195 1.128,6.465 0,3.14 -0.766,6.101 -2.113,8.712 l 3.032,2.245 c 1.343,-1.171 2.901,-1.565 3.614,-0.852 0.772,0.772 0.258,2.539 -1.149,3.947 -1.409,1.407 -3.175,1.922 -3.948,1.15 -0.634,-0.635 -0.389,-1.938 0.493,-3.163 l -2.763,-2.046 c -1.883,3.048 -4.601,5.524 -7.835,7.111 l 0.232,2.358 c 1.252,-0.02 2.253,0.43 2.387,1.162 0.162,0.895 -1.027,1.86 -2.658,2.157 -1.63,0.296 -3.084,-0.189 -3.246,-1.084 -0.143,-0.783 0.753,-1.621 2.073,-2.016 l -0.193,-1.96 c -2.16,0.849 -4.508,1.321 -6.969,1.321 -0.931,0 -1.84,-0.082 -2.735,-0.212 0.007,0.006 0.017,0.015 0.017,0.015 -0.118,-0.016 -0.233,-0.04 -0.351,-0.059 -0.14,-0.023 -0.281,-0.045 -0.42,-0.071 -0.435,-0.081 -0.864,-0.175 -1.288,-0.284 -0.103,-0.027 -0.205,-0.056 -0.306,-0.084 -0.458,-0.127 -0.911,-0.264 -1.355,-0.423 l -0.636,1.894 c 1.413,0.476 2.359,1.378 2.22,2.256 -0.043,0.269 -0.182,0.511 -0.4,0.716 -0.651,0.616 -1.993,0.908 -3.468,0.675 -0.246,-0.039 -0.483,-0.09 -0.712,-0.153 -1.138,-0.313 -2.022,-0.903 -2.38,-1.558 -0.143,-0.262 -0.202,-0.535 -0.16,-0.805 0.06,-0.376 0.31,-0.695 0.693,-0.938 0.511,-0.324 1.259,-0.514 2.112,-0.523 0.213,-0.002 0.432,0.007 0.656,0.028 l 0.721,-2.142 c -3.577,-1.607 -6.57,-4.283 -8.566,-7.625 l -2.472,1.475 c 0.007,0.04 0.017,0.078 0.025,0.118 0.162,0.894 0.164,1.752 0.034,2.488 -0.087,0.49 -0.232,0.926 -0.428,1.282 -0.098,0.178 -0.208,0.336 -0.331,0.472 -0.243,0.269 -0.533,0.447 -0.86,0.506 -0.082,0.015 -0.164,0.022 -0.246,0.022 -1.235,-0.004 -2.502,-1.673 -2.908,-3.908 -0.19,-1.044 -0.16,-2.037 0.043,-2.845 0.143,-0.577 0.377,-1.059 0.681,-1.397 0.245,-0.27 0.534,-0.447 0.861,-0.506 0.125,-0.023 0.251,-0.028 0.377,-0.016 0.252,0.025 0.504,0.117 0.748,0.268 0.244,0.15 0.48,0.359 0.702,0.617 0.332,0.386 0.631,0.883 0.87,1.458 l 2.205,-1.316 c -1.268,-2.551 -1.986,-5.425 -1.986,-8.467 0,-1.261 0.123,-2.493 0.357,-3.685 0.391,-1.986 1.091,-3.862 2.046,-5.575 l -1.713,-0.483 c -0.803,1.724 -2.186,2.777 -3.157,2.359 -0.502,-0.216 -0.796,-0.782 -0.867,-1.523 -0.071,-0.74 0.082,-1.655 0.475,-2.57 0.098,-0.228 0.207,-0.446 0.324,-0.651 0.819,-1.435 2.04,-2.255 2.918,-1.877 0.777,0.335 1.05,1.513 0.771,2.877 l 2.038,0.574 c 2.585,-3.875 6.552,-6.748 11.198,-7.915 l -0.143,-2.009 c -2.169,0.297 -4.042,-0.38 -4.261,-1.585 -0.201,-1.109 1.064,-2.293 2.929,-2.854 0.266,-0.08 0.545,-0.147 0.834,-0.199 0.432,-0.079 0.856,-0.119 1.261,-0.123 0.405,-0.004 0.791,0.026 1.146,0.09 0.712,0.126 1.306,0.38 1.698,0.734 0.131,0.117 0.239,0.247 0.322,0.386 0.083,0.139 0.14,0.288 0.169,0.446 0.024,0.132 0.027,0.265 0.01,0.398 -0.063,0.531 -0.436,1.059 -1.024,1.511 -0.442,0.339 -1.003,0.635 -1.647,0.856 l 0.147,2.05 c 0.522,-0.089 1.052,-0.158 1.587,-0.205 0.535,-0.045 1.077,-0.07 1.625,-0.07 0.52,0 1.036,0.021 1.546,0.062 2.549,0.205 4.956,0.914 7.123,2.025 0.866,0.445 1.694,0.954 2.478,1.521 l 0.639,-1.492 c -1.447,-1.105 -2.157,-2.595 -1.581,-3.442 0.154,-0.226 0.384,-0.385 0.668,-0.478 0.141,-0.046 0.297,-0.077 0.464,-0.09 0.166,-0.014 0.342,-0.013 0.528,0.005 0.74,0.071 1.609,0.395 2.433,0.955 0.206,0.139 0.398,0.288 0.578,0.441 0.717,0.615 1.211,1.321 1.402,1.96 0.048,0.16 0.077,0.316 0.086,0.465 0.018,0.298 -0.045,0.57 -0.199,0.796 -0.062,0.09 -0.136,0.171 -0.221,0.239 -0.595,0.482 -1.724,0.43 -2.895,-0.095 l -0.714,1.668 c 0.344,0.294 0.674,0.604 0.997,0.921 0.055,0.054 0.109,0.109 0.164,0.165 0.313,0.315 0.616,0.638 0.907,0.974 1.195,1.383 2.198,2.936 2.959,4.624 l 4.222,-1.405 c -0.275,-2.141 0.403,-3.978 1.595,-4.194 1.267,-0.231 2.634,1.454 3.053,3.762 C 1.954,-2.288 1.267,-0.23 0,0"
             style="fill:#4873cf;fill-opacity:1;fill-rule:nonzero;stroke:none"
             id="path170"
             inkscape:connector-curvature="0" /></g><g
           id="g172"
           transform="translate(305.0693,171.3223)"><path
             d="m 0,0 c -0.587,0.106 -1.211,-0.537 -1.531,-1.501 l -2.193,0.73 c 0.4,1.108 0.619,2.302 0.619,3.548 0,1.724 -0.42,3.349 -1.159,4.783 L -2.6,8.791 c 0.737,-0.643 1.592,-0.858 1.984,-0.468 0.424,0.425 0.141,1.395 -0.632,2.167 -0.772,0.773 -1.742,1.055 -2.166,0.631 -0.348,-0.348 -0.214,-1.063 0.27,-1.735 L -4.66,8.263 c -1.034,1.673 -2.526,3.032 -4.301,3.903 l 0.128,1.294 c 0.687,-0.011 1.237,0.236 1.31,0.638 0.089,0.491 -0.564,1.021 -1.459,1.183 -0.895,0.163 -1.693,-0.103 -1.782,-0.594 -0.078,-0.43 0.413,-0.89 1.138,-1.107 l -0.106,-1.076 c -1.185,0.467 -2.475,0.725 -3.826,0.725 -0.51,0 -1.009,-0.045 -1.5,-0.116 0.003,0.003 0.009,0.008 0.009,0.008 -0.065,-0.009 -0.128,-0.021 -0.193,-0.032 -0.077,-0.013 -0.154,-0.025 -0.231,-0.039 -0.238,-0.044 -0.474,-0.096 -0.706,-0.156 -0.057,-0.015 -0.113,-0.031 -0.169,-0.046 -0.251,-0.07 -0.5,-0.145 -0.743,-0.232 l -0.349,1.039 c 0.775,0.262 1.294,0.757 1.218,1.239 -0.023,0.148 -0.1,0.28 -0.219,0.393 -0.357,0.338 -1.095,0.498 -1.904,0.37 -0.135,-0.021 -0.265,-0.05 -0.39,-0.084 -0.625,-0.172 -1.111,-0.495 -1.307,-0.855 -0.079,-0.144 -0.111,-0.293 -0.088,-0.442 0.033,-0.206 0.17,-0.381 0.38,-0.515 0.281,-0.178 0.692,-0.282 1.16,-0.286 0.117,-10e-4 0.237,0.004 0.36,0.015 l 0.396,-1.176 c -1.964,-0.882 -3.606,-2.351 -4.702,-4.185 l -1.357,0.809 c 0.004,0.022 0.01,0.043 0.014,0.065 0.088,0.491 0.089,0.962 0.018,1.365 -0.048,0.27 -0.127,0.509 -0.235,0.704 -0.053,0.098 -0.114,0.185 -0.181,0.259 -0.134,0.148 -0.293,0.245 -0.473,0.278 -0.044,0.008 -0.089,0.012 -0.135,0.012 -0.677,-0.002 -1.372,-0.918 -1.595,-2.145 -0.104,-0.573 -0.088,-1.119 0.022,-1.562 0.08,-0.316 0.208,-0.581 0.375,-0.767 0.134,-0.147 0.293,-0.245 0.472,-0.277 0.069,-0.013 0.138,-0.016 0.207,-0.009 0.138,0.014 0.277,0.065 0.411,0.147 0.134,0.083 0.264,0.197 0.385,0.339 0.183,0.212 0.346,0.484 0.478,0.8 l 1.21,-0.722 c -0.696,-1.401 -1.09,-2.978 -1.09,-4.648 0,-0.692 0.067,-1.368 0.196,-2.022 0.214,-1.091 0.599,-2.12 1.123,-3.061 l -0.94,-0.264 c -0.441,0.946 -1.201,1.523 -1.733,1.294 -0.276,-0.119 -0.437,-0.429 -0.476,-0.835 -0.039,-0.408 0.045,-0.91 0.26,-1.411 0.055,-0.125 0.114,-0.246 0.179,-0.358 0.449,-0.788 1.119,-1.237 1.601,-1.03 0.427,0.183 0.577,0.831 0.423,1.579 l 1.119,0.315 c 1.419,-2.127 3.597,-3.704 6.147,-4.344 l -0.079,-1.103 c -1.19,0.163 -2.219,-0.209 -2.339,-0.871 -0.11,-0.608 0.584,-1.259 1.608,-1.565 0.146,-0.044 0.299,-0.081 0.458,-0.111 0.237,-0.043 0.47,-0.064 0.692,-0.067 0.222,-0.002 0.434,0.014 0.629,0.05 0.391,0.069 0.717,0.209 0.932,0.402 0.072,0.065 0.131,0.136 0.177,0.213 0.045,0.076 0.076,0.158 0.093,0.245 0.013,0.072 0.014,0.145 0.005,0.218 -0.035,0.291 -0.239,0.581 -0.562,0.829 -0.242,0.186 -0.551,0.349 -0.904,0.47 l 0.081,1.126 c 0.286,-0.049 0.577,-0.087 0.871,-0.113 0.294,-0.025 0.591,-0.039 0.891,-0.039 0.286,0 0.569,0.012 0.849,0.034 1.399,0.113 2.721,0.502 3.91,1.112 0.476,0.244 0.93,0.523 1.361,0.835 l 0.35,-0.819 c -0.794,-0.607 -1.184,-1.424 -0.868,-1.889 0.085,-0.124 0.211,-0.211 0.367,-0.263 0.078,-0.025 0.163,-0.042 0.254,-0.05 0.091,-0.008 0.189,-0.007 0.29,0.003 0.407,0.039 0.884,0.217 1.336,0.525 0.113,0.077 0.219,0.158 0.317,0.242 0.393,0.338 0.664,0.724 0.77,1.076 0.026,0.088 0.042,0.173 0.047,0.255 0.01,0.164 -0.025,0.312 -0.109,0.436 -0.034,0.05 -0.075,0.094 -0.121,0.132 -0.327,0.265 -0.946,0.235 -1.59,-0.052 l -0.392,0.915 c 0.189,0.162 0.37,0.331 0.548,0.505 0.03,0.031 0.06,0.061 0.09,0.091 0.171,0.173 0.338,0.351 0.498,0.535 0.656,0.759 1.206,1.612 1.624,2.538 l 2.317,-0.771 c -0.151,-1.175 0.221,-2.184 0.876,-2.302 0.695,-0.127 1.446,0.798 1.676,2.065 C 1.072,-1.256 0.695,-0.127 0,0"
             style="fill:#4873cf;fill-opacity:1;fill-rule:nonzero;stroke:none"
             id="path174"
             inkscape:connector-curvature="0" /></g><g
           id="g176"
           transform="translate(392.7871,452.1987)"><path
             d="m 0,0 c 0.086,-0.095 0.187,-0.157 0.303,-0.178 0.044,-0.008 0.088,-0.01 0.133,-0.006 0.087,0.009 0.176,0.041 0.262,0.095 0.086,0.052 0.169,0.126 0.247,0.216 0.117,0.136 0.222,0.311 0.306,0.513 L 2.026,0.178 C 1.58,-0.719 1.328,-1.73 1.328,-2.8 c 0,-0.443 0.043,-0.876 0.125,-1.295 0.138,-0.698 0.384,-1.358 0.72,-1.96 L 1.57,-6.225 c -0.282,0.606 -0.768,0.976 -1.109,0.829 -0.177,-0.076 -0.28,-0.275 -0.306,-0.535 -0.024,-0.26 0.03,-0.582 0.167,-0.903 0.035,-0.081 0.074,-0.158 0.115,-0.229 0.288,-0.505 0.716,-0.793 1.026,-0.661 0.273,0.118 0.369,0.533 0.27,1.012 L 2.45,-6.51 C 3.359,-7.873 4.754,-8.883 6.388,-9.293 L 6.337,-10 c -0.763,0.105 -1.421,-0.133 -1.498,-0.557 -0.07,-0.39 0.374,-0.806 1.03,-1.003 0.094,-0.028 0.192,-0.052 0.293,-0.07 0.152,-0.028 0.301,-0.042 0.443,-0.044 0.143,-0.001 0.279,0.01 0.404,0.032 0.25,0.044 0.459,0.134 0.596,0.258 0.046,0.042 0.084,0.087 0.114,0.136 0.029,0.049 0.049,0.101 0.059,0.157 0.008,0.046 0.009,0.093 0.003,0.139 -0.022,0.187 -0.153,0.373 -0.36,0.532 -0.154,0.119 -0.353,0.223 -0.578,0.301 l 0.051,0.721 c 0.184,-0.032 0.37,-0.056 0.558,-0.072 0.189,-0.017 0.379,-0.025 0.571,-0.025 0.183,0 0.365,0.007 0.543,0.022 0.897,0.072 1.744,0.321 2.505,0.712 0.305,0.156 0.596,0.335 0.871,0.534 l 0.225,-0.524 c -0.509,-0.389 -0.758,-0.913 -0.556,-1.21 0.055,-0.08 0.135,-0.135 0.235,-0.168 0.05,-0.017 0.105,-0.027 0.163,-0.032 0.058,-0.005 0.121,-0.005 0.186,0.002 0.26,0.025 0.566,0.138 0.856,0.335 0.072,0.05 0.139,0.102 0.203,0.156 0.252,0.216 0.426,0.464 0.493,0.689 0.017,0.056 0.026,0.111 0.03,0.163 0.006,0.105 -0.016,0.201 -0.07,0.28 -0.021,0.032 -0.048,0.06 -0.078,0.084 -0.209,0.17 -0.606,0.151 -1.018,-0.033 l -0.251,0.586 c 0.121,0.104 0.238,0.212 0.351,0.324 0.019,0.019 0.039,0.038 0.058,0.058 0.11,0.111 0.216,0.225 0.319,0.343 0.42,0.486 0.772,1.032 1.04,1.626 l 1.484,-0.494 c -0.096,-0.753 0.142,-1.399 0.562,-1.476 0.445,-0.081 0.926,0.512 1.073,1.323 0.148,0.812 -0.095,1.535 -0.54,1.616 -0.375,0.069 -0.775,-0.343 -0.98,-0.961 l -1.405,0.467 c 0.256,0.71 0.397,1.475 0.397,2.273 0,1.105 -0.27,2.145 -0.742,3.064 l 1.065,0.789 c 0.473,-0.412 1.02,-0.551 1.27,-0.3 0.272,0.272 0.091,0.893 -0.404,1.388 C 15.414,2.636 14.792,2.817 14.521,2.545 14.298,2.322 14.384,1.864 14.694,1.433 L 13.723,0.714 c -0.662,1.072 -1.619,1.942 -2.755,2.5 L 11.05,4.043 C 11.489,4.037 11.842,4.194 11.889,4.452 11.945,4.767 11.527,5.106 10.954,5.21 10.381,5.314 9.87,5.144 9.813,4.829 9.763,4.554 10.077,4.259 10.541,4.12 L 10.474,3.431 C 9.715,3.73 8.889,3.896 8.023,3.896 7.696,3.896 7.377,3.867 7.062,3.821 7.064,3.823 7.067,3.827 7.067,3.827 7.026,3.821 6.985,3.813 6.944,3.806 6.895,3.797 6.846,3.79 6.797,3.781 6.644,3.752 6.493,3.719 6.344,3.681 6.308,3.671 6.271,3.661 6.236,3.651 6.075,3.607 5.916,3.559 5.76,3.502 L 5.536,4.168 C 6.033,4.336 6.365,4.653 6.316,4.961 6.302,5.056 6.253,5.141 6.176,5.213 5.947,5.43 5.475,5.533 4.957,5.451 4.87,5.437 4.787,5.419 4.707,5.397 4.307,5.287 3.995,5.08 3.869,4.849 3.819,4.757 3.799,4.661 3.813,4.566 3.834,4.434 3.922,4.322 4.057,4.236 4.236,4.122 4.5,4.056 4.8,4.053 4.874,4.052 4.951,4.055 5.03,4.062 L 5.283,3.309 C 4.025,2.744 2.974,1.803 2.271,0.628 L 1.402,1.147 C 1.405,1.161 1.409,1.174 1.411,1.188 1.469,1.503 1.47,1.804 1.424,2.063 1.393,2.235 1.342,2.389 1.273,2.514 1.238,2.577 1.2,2.632 1.157,2.68 1.071,2.774 0.97,2.837 0.854,2.858 0.825,2.863 0.797,2.866 0.768,2.865 0.334,2.864 -0.111,2.277 -0.255,1.491 -0.321,1.125 -0.311,0.775 -0.24,0.491 -0.189,0.288 -0.107,0.119 0,0"
             style="fill:#4873cf;fill-opacity:1;fill-rule:nonzero;stroke:none"
             id="path178"
             inkscape:connector-curvature="0" /></g><g
           id="g180"
           transform="translate(338.2671,192.4619)"><path
             d="m 0,0 c -0.375,0.068 -0.776,-0.344 -0.98,-0.962 l -1.405,0.468 c 0.256,0.71 0.397,1.474 0.397,2.272 0,1.105 -0.269,2.146 -0.743,3.064 l 1.066,0.789 c 0.472,-0.411 1.02,-0.55 1.27,-0.299 0.272,0.272 0.091,0.893 -0.404,1.388 C -1.293,7.214 -1.915,7.396 -2.187,7.124 -2.409,6.9 -2.323,6.442 -2.013,6.012 L -2.985,5.292 C -3.647,6.364 -4.603,7.234 -5.74,7.793 l 0.082,0.829 c 0.44,-0.007 0.792,0.15 0.839,0.408 C -4.762,9.345 -5.18,9.685 -5.753,9.789 -6.327,9.893 -6.837,9.723 -6.895,9.407 -6.945,9.132 -6.63,8.838 -6.166,8.698 L -6.234,8.01 c -0.759,0.299 -1.585,0.464 -2.45,0.464 -0.327,0 -0.647,-0.029 -0.961,-0.075 l 0.006,0.006 C -9.681,8.399 -9.722,8.391 -9.763,8.384 -9.812,8.376 -9.861,8.368 -9.911,8.359 c -0.152,-0.028 -0.303,-0.061 -0.452,-0.1 -0.036,-0.009 -0.072,-0.02 -0.108,-0.03 -0.161,-0.043 -0.321,-0.092 -0.476,-0.148 l -0.224,0.666 c 0.497,0.167 0.829,0.484 0.78,0.793 -0.014,0.095 -0.064,0.18 -0.14,0.252 -0.229,0.216 -0.701,0.319 -1.219,0.237 -0.087,-0.013 -0.17,-0.032 -0.25,-0.053 -0.401,-0.111 -0.711,-0.318 -0.837,-0.548 -0.051,-0.093 -0.072,-0.189 -0.057,-0.283 0.021,-0.132 0.109,-0.245 0.244,-0.331 0.179,-0.114 0.442,-0.18 0.742,-0.183 0.075,-10e-4 0.153,0.003 0.231,0.01 l 0.254,-0.753 c -1.258,-0.566 -2.31,-1.506 -3.012,-2.681 l -0.869,0.519 c 0.002,0.013 0.006,0.027 0.009,0.041 0.057,0.314 0.057,0.616 0.011,0.875 -0.03,0.171 -0.081,0.325 -0.15,0.45 -0.035,0.063 -0.073,0.119 -0.116,0.166 -0.086,0.095 -0.188,0.157 -0.303,0.179 -0.028,0.004 -0.058,0.007 -0.086,0.006 -0.435,-10e-4 -0.88,-0.588 -1.023,-1.374 -0.066,-0.366 -0.056,-0.715 0.015,-1 0.051,-0.203 0.133,-0.372 0.24,-0.491 0.085,-0.095 0.187,-0.157 0.303,-0.178 0.044,-0.007 0.088,-0.009 0.132,-0.005 0.088,0.008 0.177,0.041 0.263,0.094 0.086,0.053 0.169,0.126 0.247,0.217 0.116,0.136 0.221,0.311 0.305,0.513 l 0.776,-0.463 c -0.446,-0.897 -0.698,-1.907 -0.698,-2.978 0,-0.443 0.043,-0.876 0.125,-1.295 0.138,-0.698 0.384,-1.358 0.72,-1.96 l -0.603,-0.169 c -0.281,0.605 -0.768,0.975 -1.11,0.829 -0.176,-0.077 -0.28,-0.276 -0.305,-0.536 -0.025,-0.26 0.029,-0.582 0.168,-0.903 0.034,-0.081 0.072,-0.157 0.113,-0.229 0.288,-0.505 0.718,-0.793 1.026,-0.661 0.274,0.119 0.37,0.533 0.271,1.012 l 0.717,0.202 c 0.909,-1.362 2.304,-2.373 3.937,-2.783 l -0.05,-0.706 c -0.763,0.105 -1.421,-0.134 -1.498,-0.558 -0.071,-0.389 0.374,-0.806 1.03,-1.002 0.093,-0.029 0.192,-0.052 0.293,-0.071 0.152,-0.028 0.301,-0.042 0.443,-0.044 0.143,-0.001 0.278,0.01 0.403,0.033 0.251,0.043 0.459,0.133 0.597,0.257 0.046,0.042 0.084,0.087 0.113,0.136 0.03,0.049 0.05,0.102 0.06,0.157 0.008,0.046 0.009,0.093 0.004,0.14 -0.023,0.186 -0.154,0.372 -0.361,0.531 -0.155,0.119 -0.352,0.224 -0.579,0.301 l 0.052,0.721 c 0.184,-0.032 0.37,-0.055 0.558,-0.072 0.188,-0.016 0.379,-0.025 0.571,-0.025 0.183,0 0.365,0.008 0.544,0.022 0.896,0.073 1.743,0.322 2.504,0.712 0.305,0.157 0.596,0.335 0.871,0.535 l 0.225,-0.525 c -0.509,-0.389 -0.758,-0.912 -0.556,-1.21 0.054,-0.08 0.135,-0.136 0.235,-0.168 0.05,-0.016 0.105,-0.027 0.163,-0.032 0.058,-0.005 0.121,-0.004 0.186,0.002 0.26,0.025 0.566,0.139 0.855,0.336 0.073,0.049 0.14,0.101 0.203,0.155 0.252,0.216 0.426,0.464 0.494,0.69 0.017,0.055 0.027,0.11 0.03,0.163 0.006,0.104 -0.016,0.2 -0.07,0.279 -0.022,0.032 -0.048,0.061 -0.078,0.085 -0.209,0.169 -0.606,0.15 -1.018,-0.034 l -0.251,0.587 c 0.121,0.103 0.237,0.212 0.351,0.323 0.019,0.019 0.038,0.039 0.058,0.059 0.109,0.11 0.216,0.224 0.318,0.342 0.421,0.487 0.773,1.033 1.041,1.626 l 1.484,-0.494 c -0.096,-0.753 0.142,-1.399 0.561,-1.475 0.446,-0.082 0.926,0.511 1.074,1.323 C 0.687,-0.805 0.446,-0.081 0,0"
             style="fill:#4873cf;fill-opacity:1;fill-rule:nonzero;stroke:none"
             id="path182"
             inkscape:connector-curvature="0" /></g><g
           id="g184"
           transform="translate(679.6035,183.8857)"><path
             d="m 0,0 c -0.376,0.068 -0.776,-0.344 -0.98,-0.962 l -1.406,0.468 c 0.257,0.71 0.397,1.474 0.397,2.272 0,1.105 -0.269,2.146 -0.742,3.064 l 1.065,0.789 c 0.473,-0.411 1.02,-0.55 1.271,-0.3 0.272,0.273 0.09,0.894 -0.404,1.389 C -1.294,7.214 -1.915,7.396 -2.187,7.124 -2.41,6.9 -2.324,6.442 -2.014,6.012 l -0.971,-0.72 c -0.662,1.072 -1.618,1.942 -2.755,2.5 l 0.082,0.83 c 0.44,-0.008 0.792,0.15 0.839,0.408 0.057,0.315 -0.362,0.655 -0.935,0.758 C -6.327,9.893 -6.838,9.722 -6.896,9.407 -6.945,9.132 -6.63,8.837 -6.166,8.698 L -6.234,8.01 c -0.759,0.298 -1.585,0.464 -2.451,0.464 -0.327,0 -0.646,-0.03 -0.961,-0.075 0.002,0.002 0.006,0.005 0.006,0.005 C -9.682,8.398 -9.722,8.391 -9.764,8.384 -9.813,8.376 -9.862,8.368 -9.911,8.359 c -0.152,-0.028 -0.304,-0.061 -0.452,-0.1 -0.036,-0.009 -0.073,-0.02 -0.109,-0.03 -0.161,-0.044 -0.32,-0.092 -0.475,-0.148 l -0.225,0.666 c 0.497,0.167 0.83,0.484 0.781,0.793 -0.015,0.095 -0.064,0.18 -0.14,0.252 -0.23,0.216 -0.701,0.319 -1.22,0.237 -0.086,-0.013 -0.17,-0.032 -0.25,-0.053 -0.4,-0.111 -0.711,-0.318 -0.837,-0.548 -0.051,-0.093 -0.071,-0.189 -0.057,-0.283 0.022,-0.132 0.11,-0.245 0.245,-0.331 0.179,-0.114 0.442,-0.18 0.742,-0.183 0.075,-10e-4 0.152,0.002 0.23,0.01 l 0.254,-0.753 c -1.258,-0.566 -2.309,-1.506 -3.012,-2.682 l -0.869,0.519 c 0.003,0.014 0.006,0.028 0.009,0.042 0.057,0.314 0.058,0.616 0.012,0.875 -0.03,0.171 -0.082,0.325 -0.151,0.45 -0.034,0.062 -0.073,0.118 -0.116,0.166 -0.086,0.095 -0.187,0.157 -0.303,0.179 -0.028,0.004 -0.057,0.006 -0.085,0.006 -0.435,-10e-4 -0.88,-0.588 -1.023,-1.374 -0.066,-0.366 -0.057,-0.715 0.015,-1 0.051,-0.203 0.133,-0.372 0.239,-0.491 0.086,-0.095 0.188,-0.157 0.303,-0.178 0.044,-0.007 0.089,-0.009 0.133,-0.005 0.088,0.008 0.176,0.041 0.262,0.094 0.086,0.053 0.169,0.126 0.247,0.217 0.117,0.136 0.222,0.311 0.306,0.513 l 0.775,-0.463 c -0.446,-0.898 -0.698,-1.907 -0.698,-2.978 0,-0.443 0.043,-0.876 0.126,-1.295 0.137,-0.698 0.383,-1.358 0.719,-1.961 l -0.602,-0.168 c -0.282,0.605 -0.769,0.975 -1.11,0.829 -0.177,-0.077 -0.28,-0.276 -0.305,-0.536 -0.025,-0.26 0.029,-0.582 0.167,-0.904 0.034,-0.08 0.073,-0.156 0.114,-0.228 0.288,-0.505 0.717,-0.793 1.026,-0.661 0.273,0.119 0.369,0.533 0.271,1.012 l 0.716,0.202 c 0.909,-1.363 2.305,-2.373 3.938,-2.783 l -0.05,-0.706 c -0.763,0.105 -1.422,-0.134 -1.498,-0.558 -0.071,-0.389 0.373,-0.806 1.029,-1.003 0.094,-0.028 0.192,-0.052 0.293,-0.07 0.152,-0.028 0.302,-0.042 0.443,-0.044 0.143,-0.001 0.279,0.01 0.404,0.033 0.25,0.043 0.459,0.132 0.596,0.257 0.046,0.041 0.084,0.087 0.114,0.136 0.029,0.049 0.05,0.102 0.059,0.157 0.009,0.046 0.01,0.093 0.004,0.14 -0.022,0.186 -0.153,0.372 -0.36,0.531 -0.155,0.119 -0.353,0.224 -0.579,0.301 l 0.052,0.721 c 0.183,-0.032 0.369,-0.056 0.557,-0.072 0.189,-0.016 0.379,-0.025 0.571,-0.025 0.184,0 0.365,0.008 0.544,0.021 0.897,0.073 1.743,0.323 2.504,0.713 0.305,0.157 0.597,0.335 0.872,0.535 l 0.225,-0.525 c -0.509,-0.389 -0.759,-0.912 -0.556,-1.21 0.054,-0.08 0.135,-0.136 0.235,-0.168 0.049,-0.016 0.104,-0.027 0.163,-0.032 0.058,-0.005 0.12,-0.004 0.185,0.002 0.261,0.025 0.567,0.139 0.856,0.336 0.072,0.049 0.14,0.1 0.203,0.155 0.252,0.216 0.426,0.464 0.493,0.689 0.017,0.056 0.027,0.111 0.03,0.164 0.006,0.104 -0.015,0.2 -0.07,0.279 -0.021,0.032 -0.047,0.061 -0.077,0.085 -0.209,0.169 -0.607,0.15 -1.019,-0.034 l -0.251,0.587 c 0.121,0.103 0.238,0.212 0.351,0.323 l 0.059,0.059 c 0.109,0.11 0.215,0.224 0.318,0.341 v 10e-4 c 0.42,0.486 0.772,1.033 1.041,1.625 l 1.483,-0.494 c -0.096,-0.752 0.142,-1.398 0.562,-1.474 0.445,-0.082 0.926,0.511 1.073,1.323 C 0.687,-0.805 0.445,-0.081 0,0"
             style="fill:#4873cf;fill-opacity:1;fill-rule:nonzero;stroke:none"
             id="path186"
             inkscape:connector-curvature="0" /></g></g></g><g
       id="g188"><g
         id="g190"
         clip-path="url(#clipPath194)"><g
           id="g196"
           transform="translate(0,56.8018)"><path
             d="m 0,0 c 21.054,47.173 130.146,70.176 168.352,68.253 75.125,-3.78 93.525,30.631 97.831,58.226 7.521,48.204 95.811,18.388 93.765,66.446 -3.28,77.04 85.877,62.453 85.877,62.453 0,0 5.529,8.583 0,9.673 -5.528,1.09 -43.907,39.182 -59.825,54.875 -15.917,15.693 -9.564,34.449 -7.099,72.763 2.466,38.315 -22.23,50.509 -22.23,50.509 H 0 Z"
             style="fill:#ffffff;fill-opacity:1;fill-rule:nonzero;stroke:none"
             id="path198"
             inkscape:connector-curvature="0" /></g><g
           id="g200"
           transform="translate(253.5137,317.8628)"><path
             d="m 0,0 c -3.435,0.624 -7.092,-3.141 -8.962,-8.787 l -12.835,4.272 c 2.34,6.487 3.623,13.479 3.623,20.773 0,10.092 -2.459,19.604 -6.786,27.996 l 9.74,7.212 c 4.316,-3.761 9.322,-5.028 11.613,-2.737 2.482,2.482 0.828,8.16 -3.695,12.683 -4.522,4.523 -10.2,6.176 -12.682,3.694 -2.037,-2.037 -1.252,-6.224 1.584,-10.162 l -8.879,-6.574 c -6.051,9.795 -14.784,17.752 -25.179,22.85 l 0.749,7.579 c 4.021,-0.065 7.24,1.38 7.668,3.733 0.522,2.875 -3.301,5.977 -8.54,6.929 -5.239,0.953 -9.91,-0.607 -10.432,-3.482 -0.458,-2.518 2.42,-5.21 6.662,-6.479 l -0.621,-6.298 c -6.938,2.73 -14.486,4.246 -22.393,4.246 -7.26,0 -14.222,-1.272 -20.684,-3.593 l -2.048,6.088 c 4.541,1.528 7.582,4.425 7.136,7.246 -0.547,3.467 -6.113,5.469 -12.43,4.471 -6.317,-0.998 -10.995,-4.617 -10.448,-8.084 0.509,-3.223 5.366,-5.146 11.121,-4.604 l 2.316,-6.884 c -11.496,-5.164 -21.11,-13.762 -27.525,-24.502 l -7.944,4.739 c 0.025,0.128 0.057,0.252 0.08,0.381 1.393,7.662 -0.887,14.492 -5.092,15.256 -4.204,0.765 -8.742,-4.827 -10.134,-12.489 -1.392,-7.661 0.888,-14.492 5.092,-15.256 3.214,-0.584 6.616,2.55 8.666,7.477 l 7.086,-4.227 c -4.077,-8.197 -6.382,-17.432 -6.382,-27.209 0,-10.803 2.809,-20.945 7.722,-29.754 l -5.505,-1.55 c -2.578,5.539 -7.025,8.92 -10.144,7.578 -3.224,-1.387 -3.788,-7.275 -1.259,-13.15 2.528,-5.875 7.191,-9.512 10.415,-8.125 2.5,1.076 3.377,4.863 2.478,9.245 l 6.55,1.845 c 8.307,-12.452 21.055,-21.683 35.983,-25.432 l -0.461,-6.458 c -6.969,0.956 -12.987,-1.223 -13.69,-5.094 -0.74,-4.071 4.673,-8.463 12.09,-9.81 7.417,-1.348 14.028,0.859 14.768,4.929 0.615,3.386 -3.035,6.989 -8.548,8.883 l 0.47,6.587 c 3.357,-0.571 6.802,-0.885 10.321,-0.885 13.381,0 25.749,4.308 35.82,11.594 l 2.052,-4.792 c -4.649,-3.554 -6.929,-8.341 -5.078,-11.062 1.974,-2.903 7.862,-2.339 13.15,1.258 5.288,3.598 7.975,8.867 6.001,11.768 -1.588,2.335 -5.711,2.391 -10.015,0.465 l -2.295,5.359 c 6.859,5.84 12.407,13.164 16.158,21.479 l 13.564,-4.516 c -0.884,-6.879 1.295,-12.782 5.127,-13.479 4.07,-0.74 8.463,4.673 9.81,12.09 C 6.277,-7.352 4.07,-0.74 0,0"
             style="fill:#ff7481;fill-opacity:1;fill-rule:nonzero;stroke:none"
             id="path202"
             inkscape:connector-curvature="0" /></g><g
           id="g204"
           transform="translate(165.4165,358.0303)"><path
             d="m 0,0 c 0,4.571 -3.705,8.277 -8.276,8.277 -4.571,0 -8.277,-3.706 -8.277,-8.277 0,-4.571 3.706,-8.276 8.277,-8.276 C -3.705,-8.276 0,-4.571 0,0"
             style="fill:#ff5c6b;fill-opacity:1;fill-rule:nonzero;stroke:none"
             id="path206"
             inkscape:connector-curvature="0" /></g><g
           id="g208"
           transform="translate(162.7842,318.9844)"><path
             d="m 0,0 c -4.571,0 -8.276,-3.706 -8.276,-8.276 0,-4.571 3.705,-8.277 8.276,-8.277 4.571,0 8.276,3.706 8.276,8.277 C 8.276,-3.706 4.571,0 0,0"
             style="fill:#ff5c6b;fill-opacity:1;fill-rule:nonzero;stroke:none"
             id="path210"
             inkscape:connector-curvature="0" /></g><g
           id="g212"
           transform="translate(192.0156,358.0303)"><path
             d="M 0,0 C 6.29,0 11.389,5.099 11.389,11.39 11.389,17.68 6.29,22.779 0,22.779 -6.29,22.779 -11.389,17.68 -11.389,11.39 -11.389,5.099 -6.29,0 0,0"
             style="fill:#ff5c6b;fill-opacity:1;fill-rule:nonzero;stroke:none"
             id="path214"
             inkscape:connector-curvature="0" /></g><g
           id="g216"
           transform="translate(200.292,310.708)"><path
             d="m 0,0 c -4.571,0 -8.276,-3.706 -8.276,-8.276 0,-4.572 3.705,-8.277 8.276,-8.277 4.571,0 8.277,3.705 8.277,8.277 C 8.277,-3.706 4.571,0 0,0"
             style="fill:#ff5c6b;fill-opacity:1;fill-rule:nonzero;stroke:none"
             id="path218"
             inkscape:connector-curvature="0" /></g><g
           id="g220"
           transform="translate(194.6855,335.4297)"><path
             d="m 0,0 c 0,3.901 -3.163,7.064 -7.064,7.064 -3.902,0 -7.065,-3.163 -7.065,-7.064 0,-3.902 3.163,-7.064 7.065,-7.064 C -3.163,-7.064 0,-3.902 0,0"
             style="fill:#ff5c6b;fill-opacity:1;fill-rule:nonzero;stroke:none"
             id="path222"
             inkscape:connector-curvature="0" /></g><g
           id="g224"
           transform="translate(134.7676,342.4941)"><path
             d="m 0,0 c -2.285,0 -4.138,-1.853 -4.138,-4.138 0,-2.286 1.853,-4.138 4.138,-4.138 2.286,0 4.138,1.852 4.138,4.138 C 4.138,-1.853 2.286,0 0,0"
             style="fill:#ff5c6b;fill-opacity:1;fill-rule:nonzero;stroke:none"
             id="path226"
             inkscape:connector-curvature="0" /></g><g
           id="g228"><g
             id="g230" /><g
             id="g242"><g
               clip-path="url(#clipPath234)"
               id="g240"><g
                 transform="translate(145.0474,263.2256)"
                 id="g238"><path
                   d="m 0,0 c -0.74,-4.07 4.673,-8.462 12.09,-9.81 7.417,-1.348 14.029,0.859 14.768,4.929 0.616,3.386 -3.034,6.989 -8.547,8.883 l 0.47,6.587 c 3.357,-0.571 6.801,-0.884 10.321,-0.884 13.38,0 25.748,4.307 35.819,11.593 l 2.052,-4.792 C 62.324,12.953 60.044,8.166 61.896,5.444 63.87,2.542 69.757,3.105 75.045,6.703 c 5.288,3.597 7.976,8.866 6.001,11.768 -1.588,2.334 -5.711,2.39 -10.015,0.465 l -2.295,5.358 c 2.385,2.031 4.6,4.251 6.647,6.62 C 64.351,24.157 8.91,21.087 -1.984,61.031 c -10.902,39.974 22.353,70.422 22.353,70.422 -4.13,-0.593 -8.13,-1.588 -11.952,-2.96 l -2.048,6.087 c 4.542,1.528 7.582,4.425 7.136,7.246 -0.547,3.467 -6.112,5.469 -12.43,4.471 -6.317,-0.998 -10.995,-4.617 -10.448,-8.084 0.509,-3.223 5.366,-5.146 11.121,-4.604 l 2.316,-6.884 C -7.432,121.562 -17.045,112.963 -23.46,102.224 l -7.945,4.738 c 0.026,0.128 0.057,0.252 0.081,0.381 1.392,7.662 -0.888,14.492 -5.093,15.257 -4.204,0.764 -8.741,-4.828 -10.133,-12.49 -1.393,-7.661 0.887,-14.492 5.092,-15.256 3.213,-0.584 6.615,2.55 8.665,7.478 l 7.086,-4.228 c -4.077,-8.197 -6.382,-17.432 -6.382,-27.209 0,-10.803 2.81,-20.944 7.722,-29.753 l -5.505,-1.551 c -2.577,5.539 -7.025,8.92 -10.144,7.578 -3.224,-1.387 -3.788,-7.275 -1.259,-13.149 2.528,-5.875 7.192,-9.513 10.416,-8.125 2.499,1.075 3.377,4.862 2.478,9.244 l 6.549,1.845 C -13.525,24.532 -0.777,15.301 14.151,11.552 L 13.69,5.094 C 6.722,6.05 0.704,3.872 0,0"
                   style="fill:#ff5c6b;fill-opacity:1;fill-rule:nonzero;stroke:none"
                   id="path236"
                   inkscape:connector-curvature="0" /></g></g></g></g><g
           id="g244"
           transform="translate(105.6089,439.1953)"><path
             d="m 0,0 c -4.786,0 -8.666,-3.879 -8.666,-8.666 0,-4.785 3.88,-8.665 8.666,-8.665 4.786,0 8.666,3.88 8.666,8.665 C 8.666,-3.879 4.786,0 0,0"
             style="fill:#c9d7f5;fill-opacity:1;fill-rule:nonzero;stroke:none"
             id="path246"
             inkscape:connector-curvature="0" /></g><g
           id="g248"
           transform="translate(329.0552,418.4712)"><path
             d="m 0,0 c -4.786,0 -8.666,-3.879 -8.666,-8.666 0,-4.785 3.88,-8.665 8.666,-8.665 4.786,0 8.666,3.88 8.666,8.665 C 8.666,-3.879 4.786,0 0,0"
             style="fill:#c9d7f5;fill-opacity:1;fill-rule:nonzero;stroke:none"
             id="path250"
             inkscape:connector-curvature="0" /></g><g
           id="g252"
           transform="translate(160.1401,220.6758)"><path
             d="m 0,0 c -5.038,0 -9.123,-4.084 -9.123,-9.122 0,-5.038 4.085,-9.123 9.123,-9.123 5.038,0 9.123,4.085 9.123,9.123 C 9.123,-4.084 5.038,0 0,0"
             style="fill:#c9d7f5;fill-opacity:1;fill-rule:nonzero;stroke:none"
             id="path254"
             inkscape:connector-curvature="0" /></g><g
           id="g256"
           transform="translate(47.6675,402.562)"><path
             d="m 0,0 c -5.038,0 -9.123,-4.084 -9.123,-9.123 0,-5.038 4.085,-9.122 9.123,-9.122 5.038,0 9.123,4.084 9.123,9.122 C 9.123,-4.084 5.038,0 0,0"
             style="fill:#c9d7f5;fill-opacity:1;fill-rule:nonzero;stroke:none"
             id="path258"
             inkscape:connector-curvature="0" /></g><g
           id="g260"
           transform="translate(195.8989,474.2515)"><path
             d="m 0,0 c -6.517,0 -11.8,-5.283 -11.8,-11.8 0,-6.516 5.283,-11.8 11.8,-11.8 6.517,0 11.8,5.284 11.8,11.8 C 11.8,-5.283 6.517,0 0,0"
             style="fill:#c9d7f5;fill-opacity:1;fill-rule:nonzero;stroke:none"
             id="path262"
             inkscape:connector-curvature="0" /></g><g
           id="g264"
           transform="translate(65.4556,296.8203)"><path
             d="m 0,0 c -4.786,0 -8.666,-3.879 -8.666,-8.666 0,-4.785 3.88,-8.665 8.666,-8.665 4.786,0 8.666,3.88 8.666,8.665 C 8.666,-3.879 4.786,0 0,0"
             style="fill:#c9d7f5;fill-opacity:1;fill-rule:nonzero;stroke:none"
             id="path266"
             inkscape:connector-curvature="0" /></g><g
           id="g268"
           transform="translate(244.0718,418.4712)"><path
             d="m 0,0 c -2.393,0 -4.333,-1.94 -4.333,-4.333 0,-2.393 1.94,-4.333 4.333,-4.333 2.393,0 4.333,1.94 4.333,4.333 C 4.333,-1.94 2.393,0 0,0"
             style="fill:#c9d7f5;fill-opacity:1;fill-rule:nonzero;stroke:none"
             id="path270"
             inkscape:connector-curvature="0" /></g><g
           id="g272"
           transform="translate(203.292,182.123)"><path
             d="m 0,0 c -2.393,0 -4.333,-1.94 -4.333,-4.333 0,-2.393 1.94,-4.333 4.333,-4.333 2.393,0 4.333,1.94 4.333,4.333 C 4.333,-1.94 2.393,0 0,0"
             style="fill:#c9d7f5;fill-opacity:1;fill-rule:nonzero;stroke:none"
             id="path274"
             inkscape:connector-curvature="0" /></g><g
           id="g276"
           transform="translate(309.3115,269.2871)"><path
             d="m 0,0 c -2.393,0 -4.333,-1.939 -4.333,-4.333 0,-2.393 1.94,-4.332 4.333,-4.332 2.393,0 4.333,1.939 4.333,4.332 C 4.333,-1.939 2.393,0 0,0"
             style="fill:#c9d7f5;fill-opacity:1;fill-rule:nonzero;stroke:none"
             id="path278"
             inkscape:connector-curvature="0" /></g><g
           id="g280"
           transform="translate(56.79,165.5781)"><path
             d="m 0,0 c -2.393,0 -4.333,-1.94 -4.333,-4.333 0,-2.393 1.94,-4.333 4.333,-4.333 2.393,0 4.333,1.94 4.333,4.333 C 4.333,-1.94 2.393,0 0,0"
             style="fill:#c9d7f5;fill-opacity:1;fill-rule:nonzero;stroke:none"
             id="path282"
             inkscape:connector-curvature="0" /></g><g
           id="g284"
           transform="translate(299.5366,333.7622)"><path
             d="m 0,0 c -2.393,0 -4.333,-1.94 -4.333,-4.333 0,-2.393 1.94,-4.333 4.333,-4.333 2.393,0 4.333,1.94 4.333,4.333 C 4.333,-1.94 2.393,0 0,0"
             style="fill:#c9d7f5;fill-opacity:1;fill-rule:nonzero;stroke:none"
             id="path286"
             inkscape:connector-curvature="0" /></g><g
           id="g288"
           transform="translate(105.6089,232.2012)"><path
             d="m 0,0 c -2.393,0 -4.333,-1.939 -4.333,-4.332 0,-2.394 1.94,-4.333 4.333,-4.333 2.393,0 4.333,1.939 4.333,4.333 C 4.333,-1.939 2.393,0 0,0"
             style="fill:#c9d7f5;fill-opacity:1;fill-rule:nonzero;stroke:none"
             id="path290"
             inkscape:connector-curvature="0" /></g><g
           id="g292"
           transform="translate(250.4727,247.0879)"><path
             d="m 0,0 c -4.111,0 -7.443,-3.333 -7.443,-7.443 0,-4.111 3.332,-7.444 7.443,-7.444 4.111,0 7.443,3.333 7.443,7.444 C 7.443,-3.333 4.111,0 0,0"
             style="fill:#c9d7f5;fill-opacity:1;fill-rule:nonzero;stroke:none"
             id="path294"
             inkscape:connector-curvature="0" /></g><g
           id="g296"><g
             id="g298" /><g
             id="g310"><g
               clip-path="url(#clipPath302)"
               id="g308"
               style="opacity:0.60000598"><g
                 transform="translate(631.209,46.085)"
                 id="g306"><path
                   d="m 0,0 c 0,-5.919 -34.263,-10.717 -76.527,-10.717 -42.266,0 -76.528,4.798 -76.528,10.717 0,5.919 34.262,10.717 76.528,10.717 C -34.263,10.717 0,5.919 0,0"
                   style="fill:#36384f;fill-opacity:1;fill-rule:nonzero;stroke:none"
                   id="path304"
                   inkscape:connector-curvature="0" /></g></g></g></g><g
           id="g312"
           transform="translate(538.7363,82.6162)"><path
             d="m 0,0 v -18.16 l -13.664,-4.523 c -6.629,-2.194 -11.424,-7.978 -12.351,-14.899 H 22.478 L 23.72,0.199 Z"
             style="fill:#33344a;fill-opacity:1;fill-rule:nonzero;stroke:none"
             id="path314"
             inkscape:connector-curvature="0" /></g><g
           id="g316"
           transform="translate(519.7021,49.5537)"><path
             d="M 0,0 35.762,-0.846"
             style="fill:none;stroke:#a1a2cc;stroke-width:1;stroke-linecap:round;stroke-linejoin:miter;stroke-miterlimit:10;stroke-dasharray:none;stroke-opacity:1"
             id="path318"
             inkscape:connector-curvature="0" /></g><g
           id="g320"
           transform="translate(574.8525,74.6162)"><path
             d="m 0,0 v -10.16 l -13.664,-4.523 c -6.629,-2.194 -11.424,-7.978 -12.351,-14.899 H 22.478 L 23.72,5.222 Z"
             style="fill:#36384f;fill-opacity:1;fill-rule:nonzero;stroke:none"
             id="path322"
             inkscape:connector-curvature="0" /></g><g
           id="g324"
           transform="translate(552.8408,48.708)"><path
             d="M 0,0 H 40.392"
             style="fill:none;stroke:#ffffff;stroke-width:1;stroke-linecap:round;stroke-linejoin:miter;stroke-miterlimit:10;stroke-dasharray:none;stroke-opacity:1"
             id="path326"
             inkscape:connector-curvature="0" /></g><g
           id="g328"
           transform="translate(470.5254,291.6689)"><path
             d="m 0,0 c 0,0 -13.534,11.317 -15.103,19.357 -1.568,8.039 8.721,9.179 24.497,-4.019 z"
             style="fill:#54acdc;fill-opacity:1;fill-rule:nonzero;stroke:none"
             id="path330"
             inkscape:connector-curvature="0" /></g><g
           id="g332"
           transform="translate(540.8809,235.0381)"><path
             d="m 0,0 c 0,0 -22.695,126.174 17.609,133.51 40.305,7.336 76.906,9.189 89.878,-28.802 C 120.46,66.717 110.73,-1.853 98.222,-15.752 85.712,-29.651 6.023,-28.725 0,0"
             style="fill:#36384f;fill-opacity:1;fill-rule:nonzero;stroke:none"
             id="path334"
             inkscape:connector-curvature="0" /></g><g
           id="g336"
           transform="translate(610.6836,250)"><path
             d="M 0,0 H 39.614"
             style="fill:none;stroke:#ffffff;stroke-width:1;stroke-linecap:round;stroke-linejoin:miter;stroke-miterlimit:10;stroke-dasharray:none;stroke-opacity:1"
             id="path338"
             inkscape:connector-curvature="0" /></g><g
           id="g340"
           transform="translate(552.9531,358.7524)"><path
             d="M 0,0 C 0,0 5.963,3.407 5.537,9.796 5.111,16.184 -2.882,18.305 -5.29,43.264 -7.698,68.223 1.354,88.112 26.675,85.957 50.388,83.938 56.669,62.312 54.042,47.424 51.415,32.536 45.723,21.589 40.906,16.991 c 0,0 -3.065,-11.166 2.627,-14.012 5.693,-2.846 23.207,-3.944 31.803,-22.568 8.596,-18.623 22.563,-49.066 15.759,-68.765 -6.805,-19.698 -17.907,-22.205 -28.653,-27.577 0,0 7.666,-70.692 1.076,-104.378 -6.591,-33.686 -11.97,-59.316 -19.899,-63.71 -7.93,-4.395 -28.631,-9.126 -30.096,8.449 0,0 -5.82,-11.09 -23.345,-9.221 -18.235,1.945 -21.829,56.524 -20.66,84.591 1.17,28.068 3.898,68.219 11.694,73.676 0,0 -3.699,35.117 1.759,63.184 0,0 3.943,-30.878 -34.649,-21.912 -38.592,8.965 -35.539,22.924 -24.464,31.624 8.339,6.551 17.117,-4.828 37.813,-3.508 C -19.781,-55.954 -38.125,-2.506 0,0"
             style="fill:#ffffff;fill-opacity:1;fill-rule:nonzero;stroke:none"
             id="path342"
             inkscape:connector-curvature="0" /></g><g
           id="g344"
           transform="translate(570.3076,350.4658)"><path
             d="M 0,0 C 0,0 -8.802,-80.431 -2.943,-116.606"
             style="fill:none;stroke:#36384f;stroke-width:2;stroke-linecap:butt;stroke-linejoin:miter;stroke-miterlimit:10;stroke-dasharray:none;stroke-opacity:1"
             id="path346"
             inkscape:connector-curvature="0" /></g><g
           id="g348"
           transform="translate(565.9463,86.1289)"><path
             d="M 0,0 C 0,0 -12.183,58.015 -0.869,124.425"
             style="fill:#ffffff;fill-opacity:1;fill-rule:nonzero;stroke:#d6d6d6;stroke-width:2;stroke-linecap:round;stroke-linejoin:miter;stroke-miterlimit:10;stroke-dasharray:none;stroke-opacity:1"
             id="path350"
             inkscape:connector-curvature="0" /></g><g
           id="g352"
           transform="translate(569.0625,422.0464)"><path
             d="m 0,0 c 19.746,0.84 21.427,-10.083 20.377,-14.495 -1.051,-4.411 -2.521,-11.763 -21.427,-10.293 -9.288,0.723 -18.684,0.2 -18.684,11.471 0,11.404 9.689,12.889 19.734,13.317"
             style="fill:#facacc;fill-opacity:1;fill-rule:nonzero;stroke:none"
             id="path354"
             inkscape:connector-curvature="0" /></g><g
           id="g356"
           transform="translate(561.6748,405.814)"><path
             d="m 0,0 c 0,-3.964 -3.214,-7.178 -7.178,-7.178 -3.965,0 -7.177,3.214 -7.177,7.178 0,3.964 3.212,7.178 7.177,7.178 C -3.214,7.178 0,3.964 0,0"
             style="fill:#ffffff;fill-opacity:1;fill-rule:nonzero;stroke:none"
             id="path358"
             inkscape:connector-curvature="0" /></g><g
           id="g360"
           transform="translate(561.6748,405.814)"><path
             d="m 0,0 c 0,-3.964 -3.214,-7.178 -7.178,-7.178 -3.965,0 -7.177,3.214 -7.177,7.178 0,3.964 3.212,7.178 7.177,7.178 C -3.214,7.178 0,3.964 0,0 Z"
             style="fill:none;stroke:#2f374c;stroke-width:2;stroke-linecap:butt;stroke-linejoin:miter;stroke-miterlimit:10;stroke-dasharray:none;stroke-opacity:1"
             id="path362"
             inkscape:connector-curvature="0" /></g><g
           id="g364"
           transform="translate(588.084,405.814)"><path
             d="m 0,0 c 0,-4.274 -3.935,-7.739 -8.788,-7.739 -4.854,0 -8.788,3.465 -8.788,7.739 0,4.274 3.934,7.739 8.788,7.739 C -3.935,7.739 0,4.274 0,0"
             style="fill:#ffffff;fill-opacity:1;fill-rule:nonzero;stroke:none"
             id="path366"
             inkscape:connector-curvature="0" /></g><g
           id="g368"
           transform="translate(588.084,405.814)"><path
             d="m 0,0 c 0,-4.274 -3.935,-7.739 -8.788,-7.739 -4.854,0 -8.788,3.465 -8.788,7.739 0,4.274 3.934,7.739 8.788,7.739 C -3.935,7.739 0,4.274 0,0 Z"
             style="fill:none;stroke:#2f374c;stroke-width:2;stroke-linecap:butt;stroke-linejoin:miter;stroke-miterlimit:10;stroke-dasharray:none;stroke-opacity:1"
             id="path370"
             inkscape:connector-curvature="0" /></g><g
           id="g372"
           transform="translate(561.6748,405.0581)"><path
             d="M 0,0 C 0,0 3.911,3.401 8.833,0"
             style="fill:none;stroke:#2f374c;stroke-width:2;stroke-linecap:butt;stroke-linejoin:miter;stroke-miterlimit:10;stroke-dasharray:none;stroke-opacity:1"
             id="path374"
             inkscape:connector-curvature="0" /></g><g
           id="g376"
           transform="translate(568.6328,401.7202)"><path
             d="M 0,0 C 5.241,-0.573 13.059,-6.723 15.251,-14.093 17.443,-21.463 13.801,-32.583 0,-31.29 -13.801,-29.997 -16.322,-18.145 -16.404,-13.317 -16.49,-8.203 -13.895,1.521 0,0"
             style="fill:#2f374c;fill-opacity:1;fill-rule:nonzero;stroke:none"
             id="path378"
             inkscape:connector-curvature="0" /></g><g
           id="g380"
           transform="translate(583.8838,387.627)"><path
             d="M 0,0 C 0,0 15.366,2.026 22.635,16.064"
             style="fill:none;stroke:#2f374c;stroke-width:2;stroke-linecap:round;stroke-linejoin:miter;stroke-miterlimit:10;stroke-dasharray:none;stroke-opacity:1"
             id="path382"
             inkscape:connector-curvature="0" /></g><g
           id="g384"
           transform="translate(548.4463,394.2979)"><path
             d="M 0,0 C 0,0 1.056,-3.219 3.902,-3.717"
             style="fill:none;stroke:#2f374c;stroke-width:2;stroke-linecap:round;stroke-linejoin:miter;stroke-miterlimit:10;stroke-dasharray:none;stroke-opacity:1"
             id="path386"
             inkscape:connector-curvature="0" /></g><g
           id="g388"
           transform="translate(565.0908,399.7485)"><path
             d="M 0,0 C 0,0 -3.568,-17.482 2.683,-25.869"
             style="fill:none;stroke:#ffffff;stroke-width:1;stroke-linecap:round;stroke-linejoin:miter;stroke-miterlimit:10;stroke-dasharray:none;stroke-opacity:1"
             id="path390"
             inkscape:connector-curvature="0" /></g><g
           id="g392"
           transform="translate(554.4971,367.3501)"><path
             d="m 0,0 c 0,0 -3.196,-26.767 -5.806,-54.589 -2.202,-23.477 -5.229,-43.327 -12.947,-52.855 -1.98,-2.446 -5.93,-0.956 -5.769,2.186 0.515,10.179 3.739,26.841 4.539,47.332 C -18.802,-27.663 -17.573,1.604 0,0"
             style="fill:#36384f;fill-opacity:1;fill-rule:nonzero;stroke:none"
             id="path394"
             inkscape:connector-curvature="0" /></g><g
           id="g396"
           transform="translate(613.7344,371.1328)"><path
             d="m 0,0 c 0,0 -34.171,-52.605 1.362,-107.761 l 6.099,-1.326 c 0,0 -20.347,60.893 1.229,106.485 z"
             style="fill:#36384f;fill-opacity:1;fill-rule:nonzero;stroke:none"
             id="path398"
             inkscape:connector-curvature="0" /></g><g
           id="g400"
           transform="translate(523.9941,294.3154)"><path
             d="m 0,0 c 21.675,-6.53 22.797,-21.745 27.393,-42.964 4.37,-20.182 24.714,-135.054 67.378,-134.466 41.673,0.576 45.73,75.541 24.234,108.638"
             style="fill:none;stroke:#212230;stroke-width:2;stroke-linecap:round;stroke-linejoin:miter;stroke-miterlimit:10;stroke-dasharray:none;stroke-opacity:1"
             id="path402"
             inkscape:connector-curvature="0" /></g><g
           id="g404"
           transform="translate(445.8252,321.8525)"><path
             d="M 0,0 C 1.785,-0.164 3.414,-0.876 4.993,-1.761 5.384,-1.998 5.784,-2.2 6.15,-2.523 c 0.37,-0.31 0.697,-0.77 1.021,-1.239 0.322,-0.475 0.641,-0.961 0.996,-1.326 0.354,-0.366 0.746,-0.597 1.169,-0.719 l 10.073,-3.216 c 6.706,-2.181 13.462,-4.183 20.195,-6.263 6.76,-1.991 13.518,-3.988 20.309,-5.866 6.792,-1.878 13.593,-3.723 20.455,-5.35 l -0.907,-3.188 c -6.69,2.232 -13.443,4.247 -20.205,6.229 -6.762,1.982 -13.558,3.845 -20.353,5.713 -6.819,1.78 -13.616,3.638 -20.465,5.316 L 8.183,-9.858 c -0.425,0.119 -0.879,0.129 -1.373,0.004 -0.493,-0.123 -1.021,-0.368 -1.545,-0.601 -0.523,-0.228 -1.043,-0.446 -1.521,-0.516 -0.481,-0.082 -0.928,-0.042 -1.385,-0.038 -1.808,0.08 -3.568,0.333 -5.172,1.134 z"
             style="fill:#36384f;fill-opacity:1;fill-rule:nonzero;stroke:none"
             id="path406"
             inkscape:connector-curvature="0" /></g><g
           id="g408"
           transform="translate(472.0322,301.2402)"><path
             d="M 0,0 C 0,0 -8.569,9.47 -6.685,12.659 -4.8,15.848 4.545,4.734 4.545,4.734 Z"
             style="fill:#54acdc;fill-opacity:1;fill-rule:nonzero;stroke:none"
             id="path410"
             inkscape:connector-curvature="0" /></g><g
           id="g412"
           transform="translate(577.583,249.229)"><path
             d="m 0,0 -14.946,-5.666 c 0,0 -11.127,3.807 -13.372,0 -2.245,-3.806 4.002,-3.611 4.002,-3.611 0,0 -8.653,-2.098 -5.955,-10.64 5.286,-16.729 23.197,-0.539 23.197,-0.539 7.434,2.18 15.651,5.226 15.651,5.226 z"
             style="fill:#54acdc;fill-opacity:1;fill-rule:nonzero;stroke:none"
             id="path414"
             inkscape:connector-curvature="0" /></g><g
           id="g416"
           transform="translate(618.5684,296.4248)"><path
             d="m 0,0 c 0,0 3.416,-16.146 -13.972,-25.461 -17.387,-9.315 -27.945,-13.351 -27.013,-21.735 0.931,-8.383 5.899,-21.424 18.319,-16.767 12.42,4.658 18.414,9.063 26.522,13.676"
             style="fill:#ffffff;fill-opacity:1;fill-rule:nonzero;stroke:#d6d6d6;stroke-width:2;stroke-linecap:round;stroke-linejoin:miter;stroke-miterlimit:10;stroke-dasharray:none;stroke-opacity:1"
             id="path418"
             inkscape:connector-curvature="0" /></g></g></g></g></svg>